<?xml version="1.0" standalone="no"?>
<!DOCTYPE svg PUBLIC "-//W3C//DTD SVG 20010904//EN"
 "http://www.w3.org/TR/2001/REC-SVG-20010904/DTD/svg10.dtd">
<svg version="1.0" xmlns="http://www.w3.org/2000/svg"
 width="512.000000pt" height="512.000000pt" viewBox="0 0 512.000000 512.000000"
 preserveAspectRatio="xMidYMid meet">
<metadata>
Created by potrace 1.14, written by Peter Selinger 2001-2017
</metadata>
<g transform="translate(0.000000,512.000000) scale(0.100000,-0.100000)"
fill="#000000" stroke="none">
<path d="M1492 4256 c-5 -6 -33 -72 -62 -146 -28 -74 -58 -148 -65 -165 -13
-30 -93 -229 -142 -355 -14 -36 -31 -78 -38 -95 -8 -16 -39 -95 -70 -175 -32
-80 -63 -158 -70 -175 -31 -71 -283 -702 -311 -780 -8 -22 -21 -53 -28 -70
-14 -29 -220 -540 -256 -635 -9 -25 -85 -215 -169 -423 -83 -208 -151 -379
-151 -381 0 -2 103 -3 229 -3 l229 1 167 420 c93 232 176 439 185 461 10 22
30 73 45 113 l28 72 694 -2 695 -3 211 -531 212 -531 228 0 c125 0 227 4 227
8 0 7 -345 875 -375 944 -7 17 -192 478 -410 1025 -218 547 -403 1009 -410
1025 -8 17 -47 116 -88 220 l-75 190 -211 1 c-145 1 -213 -2 -219 -10z m258
-716 c23 -58 47 -118 55 -135 7 -16 43 -106 80 -200 37 -93 72 -183 80 -200
13 -29 234 -585 253 -635 l10 -25 -514 1 c-283 0 -517 3 -520 6 -4 5 43 137
64 178 4 8 106 263 227 566 121 304 221 551 222 550 1 -1 21 -49 43 -106z"/>
<path d="M3915 2550 c-350 -59 -642 -347 -703 -695 -13 -73 -6 -276 12 -345
98 -384 428 -650 811 -653 155 -1 241 16 379 77 32 14 60 26 62 26 2 0 4 -24
4 -53 l0 -54 213 1 212 1 0 850 0 850 -212 3 -213 2 0 -55 c0 -30 -3 -55 -7
-55 -5 0 -21 8 -38 18 -38 23 -135 58 -200 73 -64 14 -256 19 -320 9z m259
-435 c139 -42 254 -160 290 -296 69 -259 -123 -525 -385 -535 -132 -5 -235 34
-324 121 -91 91 -131 199 -123 334 10 176 146 340 314 380 61 14 174 12 228
-4z"/>
</g>
</svg>
